<?xml version="1.0" encoding="UTF-8"?>
<svg height="16px" viewBox="0 0 16 16" width="16px" xmlns="http://www.w3.org/2000/svg">
    <g stroke="#000000" transform="matrix(0.707107 -0.707107 0.707107 0.707107 -264.943227 26.38478)">
        <path d="m 198.60301 179.005635 h 0.392223 v 1.988738 h -0.392223 z m 0 0" stroke-width="1.21003"/>
        <path d="m 199.876354 180.676727 h 0.248593 v 0.64634 h -0.248593 z m 0 0" stroke-width="0.551465"/>
        <path d="m 201.006068 179.005635 l 0.389461 -0.002762 v 1.994262 l -0.389461 -0.002762 z m 0 0" stroke-width="1.21003"/>
        <path d="m 202.276651 180.673965 h 0.248592 v 0.651864 h -0.248592 z m 0 0" stroke-width="0.551465"/>
        <path d="m 203.403602 179.005635 h 0.392223 v 1.988738 h -0.392223 z m 0 0" stroke-width="1.21003"/>
        <path d="m 204.676947 180.676727 h 0.248592 v 0.64634 h -0.248592 z m 0 0" stroke-width="0.551465"/>
        <path d="m 205.80666 179.005635 h 0.386699 v 1.988738 h -0.386699 z m 0 0" stroke-width="1.21003"/>
        <path d="m 207.074481 180.676727 h 0.248592 v 0.64634 h -0.248592 z m 0 0" stroke-width="0.551465"/>
        <path d="m 208.204194 179.005635 h 0.392223 v 1.988738 h -0.392223 z m 0 0" stroke-width="1.21003"/>
        <path d="m 209.474777 180.673965 h 0.248592 v 0.651864 h -0.248592 z m 0 0" stroke-width="0.551465"/>
        <path d="m 210.60449 179.002873 l 0.389461 0.002762 v 1.988738 l -0.389461 0.002762 z m 0 0" stroke-width="1.21003"/>
        <path d="m 211.875073 180.676727 h 0.248592 v 0.64634 h -0.248592 z m 0 0" stroke-width="0.551465"/>
        <path d="m 213.004786 179.005635 h 0.392224 v 1.988738 h -0.392224 z m 0 0" stroke-width="1.21003"/>
    </g>
</svg>
