<?xml version="1.0" encoding="UTF-8"?>
<svg height="128px" viewBox="0 0 128 128" width="128px" xmlns="http://www.w3.org/2000/svg">
    <g stroke="#000000" transform="matrix(8.12817 -8.12817 11.442569 11.442569 -8.504731 -8.5)">
        <path d="m -4.480173 5.440077 h 8.960447 v 1.791897 h -8.960447 z m 0 0" fill="#9a9996" stroke-width="0.081047"/>
        <g stroke-width="0.039063">
            <path d="m -4.305241 5.440077 l 0.089629 -0.00017 l 0.00024 0.448059 h -0.089869 z m 0 0"/>
            <path d="m -3.605273 5.439907 h 0.089868 l -0.00024 0.448059 h -0.089388 z m 0 0"/>
            <path d="m -2.905066 5.439907 h 0.089388 l 0.000241 0.448059 h -0.089869 z m 0 0"/>
            <path d="m -2.205099 5.440077 l 0.089629 -0.00017 l -0.00024 0.448059 h -0.089389 z m 0 0"/>
            <path d="m -1.505131 5.439907 l 0.089628 0.00017 v 0.447889 h -0.089388 z m 0 0"/>
            <path d="m -0.804924 5.439907 h 0.089389 l 0.00024 0.448059 h -0.089869 z m 0 0"/>
            <path d="m -0.104956 5.440077 l 0.0896281 -0.00017 l -0.0002403 0.448059 h -0.0893878 z m 0 0"/>
            <path d="m 0.595011 5.439907 l 0.089628 0.00017 v 0.447889 h -0.089388 z m 0 0"/>
            <path d="m 1.295219 5.439907 h 0.089388 l 0.00024 0.448059 h -0.089869 z m 0 0"/>
            <path d="m 1.994946 5.439907 h 0.089868 l -0.00024 0.448059 h -0.089388 z m 0 0"/>
            <path d="m 2.695153 5.439907 l 0.089629 0.00017 v 0.447889 h -0.089869 z m 0 0"/>
            <path d="m 3.39512 5.440077 l 0.089629 -0.00017 l 0.00024 0.448059 h -0.089869 z m 0 0"/>
            <path d="m 4.095088 5.439907 h 0.089869 l -0.000241 0.448059 h -0.089388 z m 0 0"/>
        </g>
    </g>
</svg>
